<?xml version="1.0" encoding="UTF-8"?>
<svg id="Layer_1" data-name="Layer 1" xmlns="http://www.w3.org/2000/svg" viewBox="0 0 1000 1000">
  <path fill="#FFFFFF" d="M839.66,429.28l-167.85,167.43h89.64c1.4,0,2.45,1.3,2.12,2.66-8.3,34.9-31.08,66.66-56.71,90.95-18.18,17.22-39.14,30.29-60.29,43.44-20.09,12.48-40.32,24.73-60.74,36.66-6.37,3.72-12.75,7.43-19.15,11.1-13.15,7.53-29.53-1.98-29.53-17.13V308.62c49.89-16.06,86.03-63.51,86.03-119.54,0-69.24-55.21-125.38-123.32-125.38s-123.31,56.14-123.31,125.38c0,56.03,36.14,103.49,86.01,119.54v455.63c0,15.15-16.38,24.67-29.53,17.13-6.32-3.62-12.61-7.28-18.89-10.95-20.41-11.94-40.63-24.19-60.72-36.66-21.16-13.15-42.13-26.22-60.29-43.44-25.62-24.29-48.42-56.05-56.71-90.95-.33-1.36,.72-2.66,2.1-2.66h89.64l-167.85-167.43c-10.13,60.69-12.56,125.47,2.43,185.47,25.65,102.58,117.95,168.7,206.74,215.04,32.92,17.18,65.05,40.14,93.07,66.41,13.55,12.7,26.13,26.16,37.4,40.11,11.19-13.88,23.71-27.26,37.19-39.9,28.08-26.35,60.32-49.39,93.33-66.61,88.8-46.33,181.1-112.46,206.74-215.04,15.01-60,12.56-124.78,2.43-185.47ZM443.43,189.07c0-31.7,25.28-57.38,56.44-57.38s56.44,25.68,56.44,57.38-25.26,57.39-56.44,57.39-56.44-25.7-56.44-57.39Z"/>
</svg>

